<svg version="1.1" xmlns="http://www.w3.org/2000/svg" width="929" height="289"><desc>Created by Grid Painter http://grid-painter.appspot.com</desc><rect x="0" y="0" width="930" height="290" fill="#ffffff" stroke-width="0" /><path d="M96 0L96 32L80.0 16.0Z" fill="#000000" stroke-width="0" /><path d="M96 32L64 32L80.0 16.0Z" fill="#000000" stroke-width="0" /><path d="M96 32L96 0L112.0 16.0Z" fill="#000000" stroke-width="0" /><path d="M128 0L128 32L112.0 16.0Z" fill="#000000" stroke-width="0" /><path d="M128 32L96 32L112.0 16.0Z" fill="#000000" stroke-width="0" /><path d="M128 32L128 0L144.0 16.0Z" fill="#000000" stroke-width="0" /><path d="M160 0L160 32L144.0 16.0Z" fill="#000000" stroke-width="0" /><path d="M160 32L128 32L144.0 16.0Z" fill="#000000" stroke-width="0" /><path d="M160 32L160 0L176.0 16.0Z" fill="#000000" stroke-width="0" /><path d="M192 0L192 32L176.0 16.0Z" fill="#000000" stroke-width="0" /><path d="M192 32L160 32L176.0 16.0Z" fill="#000000" stroke-width="0" /><path d="M192 32L192 0L208.0 16.0Z" fill="#000000" stroke-width="0" /><path d="M224 32L192 32L208.0 16.0Z" fill="#000000" stroke-width="0" /><path d="M256 0L256 32L240.0 16.0Z" fill="#000000" stroke-width="0" /><path d="M256 32L224 32L240.0 16.0Z" fill="#000000" stroke-width="0" /><path d="M256 32L256 0L272.0 16.0Z" fill="#000000" stroke-width="0" /><path d="M288 0L288 32L272.0 16.0Z" fill="#000000" stroke-width="0" /><path d="M288 32L256 32L272.0 16.0Z" fill="#000000" stroke-width="0" /><path d="M288 32L288 0L304.0 16.0Z" fill="#000000" stroke-width="0" /><path d="M320 0L320 32L304.0 16.0Z" fill="#000000" stroke-width="0" /><path d="M320 32L288 32L304.0 16.0Z" fill="#000000" stroke-width="0" /><path d="M320 32L320 0L336.0 16.0Z" fill="#000000" stroke-width="0" /><path d="M352 0L352 32L336.0 16.0Z" fill="#000000" stroke-width="0" /><path d="M352 32L320 32L336.0 16.0Z" fill="#000000" stroke-width="0" /><path d="M352 32L352 0L368.0 16.0Z" fill="#000000" stroke-width="0" /><path d="M384 0L384 32L368.0 16.0Z" fill="#000000" stroke-width="0" /><path d="M384 32L352 32L368.0 16.0Z" fill="#000000" stroke-width="0" /><path d="M384 32L384 0L400.0 16.0Z" fill="#000000" stroke-width="0" /><path d="M416 32L384 32L400.0 16.0Z" fill="#000000" stroke-width="0" /><path d="M448 0L448 32L432.0 16.0Z" fill="#000000" stroke-width="0" /><path d="M448 32L416 32L432.0 16.0Z" fill="#000000" stroke-width="0" /><path d="M448 32L448 0L464.0 16.0Z" fill="#000000" stroke-width="0" /><path d="M480 0L480 32L464.0 16.0Z" fill="#000000" stroke-width="0" /><path d="M480 32L448 32L464.0 16.0Z" fill="#000000" stroke-width="0" /><path d="M480 32L480 0L496.0 16.0Z" fill="#000000" stroke-width="0" /><path d="M512 0L512 32L496.0 16.0Z" fill="#000000" stroke-width="0" /><path d="M512 32L480 32L496.0 16.0Z" fill="#000000" stroke-width="0" /><path d="M512 32L512 0L528.0 16.0Z" fill="#000000" stroke-width="0" /><path d="M544 0L544 32L528.0 16.0Z" fill="#000000" stroke-width="0" /><path d="M544 32L512 32L528.0 16.0Z" fill="#000000" stroke-width="0" /><path d="M544 32L544 0L560.0 16.0Z" fill="#000000" stroke-width="0" /><path d="M576 0L576 32L560.0 16.0Z" fill="#000000" stroke-width="0" /><path d="M576 32L544 32L560.0 16.0Z" fill="#000000" stroke-width="0" /><path d="M576 32L576 0L592.0 16.0Z" fill="#000000" stroke-width="0" /><path d="M608 32L576 32L592.0 16.0Z" fill="#000000" stroke-width="0" /><path d="M64 32L64 64L48.0 48.0Z" fill="#000000" stroke-width="0" /><path d="M64 64L32 64L48.0 48.0Z" fill="#000000" stroke-width="0" /><path d="M64 32L96 32L80.0 48.0Z" fill="#000000" stroke-width="0" /><path d="M64 64L64 32L80.0 48.0Z" fill="#000000" stroke-width="0" /><path d="M96 32L128 32L112.0 48.0Z" fill="#000000" stroke-width="0" /><path d="M128 32L160 32L144.0 48.0Z" fill="#000000" stroke-width="0" /><path d="M160 32L192 32L176.0 48.0Z" fill="#000000" stroke-width="0" /><path d="M192 32L224 32L208.0 48.0Z" fill="#000000" stroke-width="0" /><path d="M224 32L224 64L208.0 48.0Z" fill="#000000" stroke-width="0" /><path d="M224 32L256 32L240.0 48.0Z" fill="#000000" stroke-width="0" /><path d="M224 64L224 32L240.0 48.0Z" fill="#000000" stroke-width="0" /><path d="M256 32L288 32L272.0 48.0Z" fill="#000000" stroke-width="0" /><path d="M288 32L320 32L304.0 48.0Z" fill="#000000" stroke-width="0" /><path d="M320 32L352 32L336.0 48.0Z" fill="#000000" stroke-width="0" /><path d="M352 32L384 32L368.0 48.0Z" fill="#000000" stroke-width="0" /><path d="M384 32L416 32L400.0 48.0Z" fill="#000000" stroke-width="0" /><path d="M416 32L416 64L400.0 48.0Z" fill="#000000" stroke-width="0" /><path d="M416 32L448 32L432.0 48.0Z" fill="#000000" stroke-width="0" /><path d="M416 64L416 32L432.0 48.0Z" fill="#000000" stroke-width="0" /><path d="M448 32L480 32L464.0 48.0Z" fill="#000000" stroke-width="0" /><path d="M480 32L512 32L496.0 48.0Z" fill="#000000" stroke-width="0" /><path d="M512 32L544 32L528.0 48.0Z" fill="#000000" stroke-width="0" /><path d="M544 32L576 32L560.0 48.0Z" fill="#000000" stroke-width="0" /><path d="M576 32L608 32L592.0 48.0Z" fill="#000000" stroke-width="0" /><path d="M608 32L608 64L592.0 48.0Z" fill="#000000" stroke-width="0" /><path d="M608 64L608 32L624.0 48.0Z" fill="#000000" stroke-width="0" /><path d="M640 64L608 64L624.0 48.0Z" fill="#000000" stroke-width="0" /><path d="M32 64L32 96L16.0 80.0Z" fill="#000000" stroke-width="0" /><path d="M32 96L0 96L16.0 80.0Z" fill="#000000" stroke-width="0" /><path d="M32 64L64 64L48.0 80.0Z" fill="#000000" stroke-width="0" /><path d="M32 96L32 64L48.0 80.0Z" fill="#000000" stroke-width="0" /><path d="M96 64L96 96L80.0 80.0Z" fill="#ff0000" stroke-width="0" /><path d="M96 96L64 96L80.0 80.0Z" fill="#ff0000" stroke-width="0" /><path d="M96 64L128 64L112.0 80.0Z" fill="#ff0000" stroke-width="0" /><path d="M96 96L96 64L112.0 80.0Z" fill="#ff0000" stroke-width="0" /><path d="M128 64L128 96L112.0 80.0Z" fill="#ff0000" stroke-width="0" /><path d="M128 96L96 96L112.0 80.0Z" fill="#ff0000" stroke-width="0" /><path d="M128 96L128 64L144.0 80.0Z" fill="#ff0000" stroke-width="0" /><path d="M160 64L160 96L144.0 80.0Z" fill="#ff0000" stroke-width="0" /><path d="M160 96L128 96L144.0 80.0Z" fill="#ff0000" stroke-width="0" /><path d="M160 64L192 64L176.0 80.0Z" fill="#ff0000" stroke-width="0" /><path d="M160 96L160 64L176.0 80.0Z" fill="#ff0000" stroke-width="0" /><path d="M192 64L192 96L176.0 80.0Z" fill="#ff0000" stroke-width="0" /><path d="M192 96L160 96L176.0 80.0Z" fill="#ff0000" stroke-width="0" /><path d="M192 96L192 64L208.0 80.0Z" fill="#ff0000" stroke-width="0" /><path d="M224 96L192 96L208.0 80.0Z" fill="#ff0000" stroke-width="0" /><path d="M256 64L288 64L272.0 80.0Z" fill="#ff0000" stroke-width="0" /><path d="M256 96L256 64L272.0 80.0Z" fill="#ff0000" stroke-width="0" /><path d="M288 64L288 96L272.0 80.0Z" fill="#ff0000" stroke-width="0" /><path d="M288 96L256 96L272.0 80.0Z" fill="#ff0000" stroke-width="0" /><path d="M288 64L320 64L304.0 80.0Z" fill="#ff0000" stroke-width="0" /><path d="M288 96L288 64L304.0 80.0Z" fill="#ff0000" stroke-width="0" /><path d="M320 64L320 96L304.0 80.0Z" fill="#ff0000" stroke-width="0" /><path d="M320 96L288 96L304.0 80.0Z" fill="#ff0000" stroke-width="0" /><path d="M320 64L352 64L336.0 80.0Z" fill="#ff0000" stroke-width="0" /><path d="M320 96L320 64L336.0 80.0Z" fill="#ff0000" stroke-width="0" /><path d="M352 64L352 96L336.0 80.0Z" fill="#ff0000" stroke-width="0" /><path d="M352 96L320 96L336.0 80.0Z" fill="#ff0000" stroke-width="0" /><path d="M352 64L384 64L368.0 80.0Z" fill="#ff0000" stroke-width="0" /><path d="M352 96L352 64L368.0 80.0Z" fill="#ff0000" stroke-width="0" /><path d="M384 64L384 96L368.0 80.0Z" fill="#ff0000" stroke-width="0" /><path d="M384 96L352 96L368.0 80.0Z" fill="#ff0000" stroke-width="0" /><path d="M384 96L384 64L400.0 80.0Z" fill="#ff0000" stroke-width="0" /><path d="M416 96L384 96L400.0 80.0Z" fill="#ff0000" stroke-width="0" /><path d="M448 64L480 64L464.0 80.0Z" fill="#ff0000" stroke-width="0" /><path d="M448 96L448 64L464.0 80.0Z" fill="#ff0000" stroke-width="0" /><path d="M480 64L480 96L464.0 80.0Z" fill="#ff0000" stroke-width="0" /><path d="M480 96L448 96L464.0 80.0Z" fill="#ff0000" stroke-width="0" /><path d="M480 64L512 64L496.0 80.0Z" fill="#ff0000" stroke-width="0" /><path d="M480 96L480 64L496.0 80.0Z" fill="#ff0000" stroke-width="0" /><path d="M512 64L512 96L496.0 80.0Z" fill="#ff0000" stroke-width="0" /><path d="M512 96L480 96L496.0 80.0Z" fill="#ff0000" stroke-width="0" /><path d="M512 64L544 64L528.0 80.0Z" fill="#ff0000" stroke-width="0" /><path d="M512 96L512 64L528.0 80.0Z" fill="#ff0000" stroke-width="0" /><path d="M544 64L544 96L528.0 80.0Z" fill="#ff0000" stroke-width="0" /><path d="M544 96L512 96L528.0 80.0Z" fill="#ff0000" stroke-width="0" /><path d="M544 64L576 64L560.0 80.0Z" fill="#ff0000" stroke-width="0" /><path d="M544 96L544 64L560.0 80.0Z" fill="#ff0000" stroke-width="0" /><path d="M576 64L576 96L560.0 80.0Z" fill="#ff0000" stroke-width="0" /><path d="M576 96L544 96L560.0 80.0Z" fill="#ff0000" stroke-width="0" /><path d="M576 96L576 64L592.0 80.0Z" fill="#ff0000" stroke-width="0" /><path d="M608 96L576 96L592.0 80.0Z" fill="#ff0000" stroke-width="0" /><path d="M608 64L640 64L624.0 80.0Z" fill="#000000" stroke-width="0" /><path d="M640 64L640 96L624.0 80.0Z" fill="#000000" stroke-width="0" /><path d="M640 96L640 64L656.0 80.0Z" fill="#000000" stroke-width="0" /><path d="M672 64L672 96L656.0 80.0Z" fill="#000000" stroke-width="0" /><path d="M672 96L640 96L656.0 80.0Z" fill="#000000" stroke-width="0" /><path d="M672 96L672 64L688.0 80.0Z" fill="#000000" stroke-width="0" /><path d="M704 64L704 96L688.0 80.0Z" fill="#000000" stroke-width="0" /><path d="M704 96L672 96L688.0 80.0Z" fill="#000000" stroke-width="0" /><path d="M704 96L704 64L720.0 80.0Z" fill="#000000" stroke-width="0" /><path d="M736 64L736 96L720.0 80.0Z" fill="#000000" stroke-width="0" /><path d="M736 96L704 96L720.0 80.0Z" fill="#000000" stroke-width="0" /><path d="M736 96L736 64L752.0 80.0Z" fill="#000000" stroke-width="0" /><path d="M768 64L768 96L752.0 80.0Z" fill="#000000" stroke-width="0" /><path d="M768 96L736 96L752.0 80.0Z" fill="#000000" stroke-width="0" /><path d="M768 96L768 64L784.0 80.0Z" fill="#000000" stroke-width="0" /><path d="M800 64L800 96L784.0 80.0Z" fill="#000000" stroke-width="0" /><path d="M800 96L768 96L784.0 80.0Z" fill="#000000" stroke-width="0" /><path d="M800 96L800 64L816.0 80.0Z" fill="#000000" stroke-width="0" /><path d="M832 64L832 96L816.0 80.0Z" fill="#000000" stroke-width="0" /><path d="M832 96L800 96L816.0 80.0Z" fill="#000000" stroke-width="0" /><path d="M832 96L832 64L848.0 80.0Z" fill="#000000" stroke-width="0" /><path d="M864 64L864 96L848.0 80.0Z" fill="#000000" stroke-width="0" /><path d="M864 96L832 96L848.0 80.0Z" fill="#000000" stroke-width="0" /><path d="M864 96L864 64L880.0 80.0Z" fill="#000000" stroke-width="0" /><path d="M896 96L864 96L880.0 80.0Z" fill="#000000" stroke-width="0" /><path d="M0 96L32 96L16.0 112.0Z" fill="#000000" stroke-width="0" /><path d="M32 96L32 128L16.0 112.0Z" fill="#000000" stroke-width="0" /><path d="M32 128L0 128L16.0 112.0Z" fill="#000000" stroke-width="0" /><path d="M32 128L32 96L48.0 112.0Z" fill="#000000" stroke-width="0" /><path d="M64 96L96 96L80.0 112.0Z" fill="#ff0000" stroke-width="0" /><path d="M64 128L64 96L80.0 112.0Z" fill="#ff0000" stroke-width="0" /><path d="M96 96L96 128L80.0 112.0Z" fill="#ff0000" stroke-width="0" /><path d="M96 128L64 128L80.0 112.0Z" fill="#ff0000" stroke-width="0" /><path d="M128 96L160 96L144.0 112.0Z" fill="#ff0000" stroke-width="0" /><path d="M128 128L128 96L144.0 112.0Z" fill="#ff0000" stroke-width="0" /><path d="M160 96L160 128L144.0 112.0Z" fill="#ff0000" stroke-width="0" /><path d="M160 128L128 128L144.0 112.0Z" fill="#ff0000" stroke-width="0" /><path d="M192 96L224 96L208.0 112.0Z" fill="#ff0000" stroke-width="0" /><path d="M192 128L192 96L208.0 112.0Z" fill="#ff0000" stroke-width="0" /><path d="M224 96L224 128L208.0 112.0Z" fill="#ff0000" stroke-width="0" /><path d="M224 128L192 128L208.0 112.0Z" fill="#ff0000" stroke-width="0" /><path d="M256 96L288 96L272.0 112.0Z" fill="#ff0000" stroke-width="0" /><path d="M256 128L256 96L272.0 112.0Z" fill="#ff0000" stroke-width="0" /><path d="M288 96L288 128L272.0 112.0Z" fill="#ff0000" stroke-width="0" /><path d="M288 128L256 128L272.0 112.0Z" fill="#ff0000" stroke-width="0" /><path d="M384 96L416 96L400.0 112.0Z" fill="#ff0000" stroke-width="0" /><path d="M384 128L384 96L400.0 112.0Z" fill="#ff0000" stroke-width="0" /><path d="M416 96L416 128L400.0 112.0Z" fill="#ff0000" stroke-width="0" /><path d="M416 128L384 128L400.0 112.0Z" fill="#ff0000" stroke-width="0" /><path d="M448 96L480 96L464.0 112.0Z" fill="#ff0000" stroke-width="0" /><path d="M448 128L448 96L464.0 112.0Z" fill="#ff0000" stroke-width="0" /><path d="M480 96L480 128L464.0 112.0Z" fill="#ff0000" stroke-width="0" /><path d="M480 128L448 128L464.0 112.0Z" fill="#ff0000" stroke-width="0" /><path d="M576 96L608 96L592.0 112.0Z" fill="#ff0000" stroke-width="0" /><path d="M576 128L576 96L592.0 112.0Z" fill="#ff0000" stroke-width="0" /><path d="M608 96L608 128L592.0 112.0Z" fill="#ff0000" stroke-width="0" /><path d="M608 128L576 128L592.0 112.0Z" fill="#ff0000" stroke-width="0" /><path d="M640 96L672 96L656.0 112.0Z" fill="#000000" stroke-width="0" /><path d="M672 96L704 96L688.0 112.0Z" fill="#000000" stroke-width="0" /><path d="M704 96L736 96L720.0 112.0Z" fill="#000000" stroke-width="0" /><path d="M736 96L768 96L752.0 112.0Z" fill="#000000" stroke-width="0" /><path d="M768 96L800 96L784.0 112.0Z" fill="#000000" stroke-width="0" /><path d="M800 96L832 96L816.0 112.0Z" fill="#000000" stroke-width="0" /><path d="M832 96L864 96L848.0 112.0Z" fill="#000000" stroke-width="0" /><path d="M864 96L896 96L880.0 112.0Z" fill="#000000" stroke-width="0" /><path d="M896 96L896 128L880.0 112.0Z" fill="#000000" stroke-width="0" /><path d="M896 128L896 96L912.0 112.0Z" fill="#000000" stroke-width="0" /><path d="M928 128L896 128L912.0 112.0Z" fill="#000000" stroke-width="0" /><path d="M0 128L32 128L16.0 144.0Z" fill="#000000" stroke-width="0" /><path d="M32 128L32 160L16.0 144.0Z" fill="#000000" stroke-width="0" /><path d="M32 160L0 160L16.0 144.0Z" fill="#000000" stroke-width="0" /><path d="M32 160L32 128L48.0 144.0Z" fill="#000000" stroke-width="0" /><path d="M64 128L96 128L80.0 144.0Z" fill="#ff0000" stroke-width="0" /><path d="M64 160L64 128L80.0 144.0Z" fill="#ff0000" stroke-width="0" /><path d="M96 128L96 160L80.0 144.0Z" fill="#ff0000" stroke-width="0" /><path d="M96 160L64 160L80.0 144.0Z" fill="#ff0000" stroke-width="0" /><path d="M128 128L160 128L144.0 144.0Z" fill="#ff0000" stroke-width="0" /><path d="M128 160L128 128L144.0 144.0Z" fill="#ff0000" stroke-width="0" /><path d="M160 128L160 160L144.0 144.0Z" fill="#ff0000" stroke-width="0" /><path d="M160 160L128 160L144.0 144.0Z" fill="#ff0000" stroke-width="0" /><path d="M192 128L224 128L208.0 144.0Z" fill="#ff0000" stroke-width="0" /><path d="M192 160L192 128L208.0 144.0Z" fill="#ff0000" stroke-width="0" /><path d="M224 128L224 160L208.0 144.0Z" fill="#ff0000" stroke-width="0" /><path d="M224 160L192 160L208.0 144.0Z" fill="#ff0000" stroke-width="0" /><path d="M256 128L288 128L272.0 144.0Z" fill="#ff0000" stroke-width="0" /><path d="M256 160L256 128L272.0 144.0Z" fill="#ff0000" stroke-width="0" /><path d="M288 128L288 160L272.0 144.0Z" fill="#ff0000" stroke-width="0" /><path d="M288 160L256 160L272.0 144.0Z" fill="#ff0000" stroke-width="0" /><path d="M288 128L320 128L304.0 144.0Z" fill="#ff0000" stroke-width="0" /><path d="M288 160L288 128L304.0 144.0Z" fill="#ff0000" stroke-width="0" /><path d="M320 128L320 160L304.0 144.0Z" fill="#ff0000" stroke-width="0" /><path d="M320 160L288 160L304.0 144.0Z" fill="#ff0000" stroke-width="0" /><path d="M320 128L352 128L336.0 144.0Z" fill="#ff0000" stroke-width="0" /><path d="M320 160L320 128L336.0 144.0Z" fill="#ff0000" stroke-width="0" /><path d="M352 128L352 160L336.0 144.0Z" fill="#ff0000" stroke-width="0" /><path d="M352 160L320 160L336.0 144.0Z" fill="#ff0000" stroke-width="0" /><path d="M352 128L384 128L368.0 144.0Z" fill="#ff0000" stroke-width="0" /><path d="M352 160L352 128L368.0 144.0Z" fill="#ff0000" stroke-width="0" /><path d="M384 128L384 160L368.0 144.0Z" fill="#ff0000" stroke-width="0" /><path d="M384 160L352 160L368.0 144.0Z" fill="#ff0000" stroke-width="0" /><path d="M384 128L416 128L400.0 144.0Z" fill="#ff0000" stroke-width="0" /><path d="M384 160L384 128L400.0 144.0Z" fill="#ff0000" stroke-width="0" /><path d="M416 160L384 160L400.0 144.0Z" fill="#ff0000" stroke-width="0" /><path d="M448 128L480 128L464.0 144.0Z" fill="#ff0000" stroke-width="0" /><path d="M448 160L448 128L464.0 144.0Z" fill="#ff0000" stroke-width="0" /><path d="M480 128L480 160L464.0 144.0Z" fill="#ff0000" stroke-width="0" /><path d="M480 160L448 160L464.0 144.0Z" fill="#ff0000" stroke-width="0" /><path d="M576 128L608 128L592.0 144.0Z" fill="#ff0000" stroke-width="0" /><path d="M576 160L576 128L592.0 144.0Z" fill="#ff0000" stroke-width="0" /><path d="M608 128L608 160L592.0 144.0Z" fill="#ff0000" stroke-width="0" /><path d="M608 160L576 160L592.0 144.0Z" fill="#ff0000" stroke-width="0" /><path d="M640 128L672 128L656.0 144.0Z" fill="#ff0000" stroke-width="0" /><path d="M640 160L640 128L656.0 144.0Z" fill="#ff0000" stroke-width="0" /><path d="M672 128L672 160L656.0 144.0Z" fill="#ff0000" stroke-width="0" /><path d="M672 160L640 160L656.0 144.0Z" fill="#ff0000" stroke-width="0" /><path d="M704 128L736 128L720.0 144.0Z" fill="#ff0000" stroke-width="0" /><path d="M704 160L704 128L720.0 144.0Z" fill="#ff0000" stroke-width="0" /><path d="M736 128L736 160L720.0 144.0Z" fill="#ff0000" stroke-width="0" /><path d="M736 160L704 160L720.0 144.0Z" fill="#ff0000" stroke-width="0" /><path d="M768 128L800 128L784.0 144.0Z" fill="#ff0000" stroke-width="0" /><path d="M768 160L768 128L784.0 144.0Z" fill="#ff0000" stroke-width="0" /><path d="M800 128L800 160L784.0 144.0Z" fill="#ff0000" stroke-width="0" /><path d="M800 160L768 160L784.0 144.0Z" fill="#ff0000" stroke-width="0" /><path d="M800 160L800 128L816.0 144.0Z" fill="#ff0000" stroke-width="0" /><path d="M832 160L800 160L816.0 144.0Z" fill="#ff0000" stroke-width="0" /><path d="M832 128L864 128L848.0 144.0Z" fill="#ff0000" stroke-width="0" /><path d="M832 160L832 128L848.0 144.0Z" fill="#ff0000" stroke-width="0" /><path d="M864 128L864 160L848.0 144.0Z" fill="#ff0000" stroke-width="0" /><path d="M864 160L832 160L848.0 144.0Z" fill="#ff0000" stroke-width="0" /><path d="M896 128L896 160L880.0 144.0Z" fill="#000000" stroke-width="0" /><path d="M896 128L928 128L912.0 144.0Z" fill="#000000" stroke-width="0" /><path d="M896 160L896 128L912.0 144.0Z" fill="#000000" stroke-width="0" /><path d="M928 160L896 160L912.0 144.0Z" fill="#000000" stroke-width="0" /><path d="M0 160L32 160L16.0 176.0Z" fill="#000000" stroke-width="0" /><path d="M32 160L32 192L16.0 176.0Z" fill="#000000" stroke-width="0" /><path d="M32 192L0 192L16.0 176.0Z" fill="#000000" stroke-width="0" /><path d="M32 192L32 160L48.0 176.0Z" fill="#000000" stroke-width="0" /><path d="M64 160L96 160L80.0 176.0Z" fill="#ff0000" stroke-width="0" /><path d="M64 192L64 160L80.0 176.0Z" fill="#ff0000" stroke-width="0" /><path d="M96 160L96 192L80.0 176.0Z" fill="#ff0000" stroke-width="0" /><path d="M96 192L64 192L80.0 176.0Z" fill="#ff0000" stroke-width="0" /><path d="M128 160L160 160L144.0 176.0Z" fill="#ff0000" stroke-width="0" /><path d="M128 192L128 160L144.0 176.0Z" fill="#ff0000" stroke-width="0" /><path d="M160 160L160 192L144.0 176.0Z" fill="#ff0000" stroke-width="0" /><path d="M160 192L128 192L144.0 176.0Z" fill="#ff0000" stroke-width="0" /><path d="M192 160L224 160L208.0 176.0Z" fill="#ff0000" stroke-width="0" /><path d="M192 192L192 160L208.0 176.0Z" fill="#ff0000" stroke-width="0" /><path d="M224 160L224 192L208.0 176.0Z" fill="#ff0000" stroke-width="0" /><path d="M224 192L192 192L208.0 176.0Z" fill="#ff0000" stroke-width="0" /><path d="M256 160L288 160L272.0 176.0Z" fill="#ff0000" stroke-width="0" /><path d="M256 192L256 160L272.0 176.0Z" fill="#ff0000" stroke-width="0" /><path d="M288 160L288 192L272.0 176.0Z" fill="#ff0000" stroke-width="0" /><path d="M288 192L256 192L272.0 176.0Z" fill="#ff0000" stroke-width="0" /><path d="M384 160L416 160L400.0 176.0Z" fill="#ff0000" stroke-width="0" /><path d="M384 192L384 160L400.0 176.0Z" fill="#ff0000" stroke-width="0" /><path d="M416 160L416 192L400.0 176.0Z" fill="#ff0000" stroke-width="0" /><path d="M416 192L384 192L400.0 176.0Z" fill="#ff0000" stroke-width="0" /><path d="M448 160L480 160L464.0 176.0Z" fill="#ff0000" stroke-width="0" /><path d="M448 192L448 160L464.0 176.0Z" fill="#ff0000" stroke-width="0" /><path d="M480 160L480 192L464.0 176.0Z" fill="#ff0000" stroke-width="0" /><path d="M480 192L448 192L464.0 176.0Z" fill="#ff0000" stroke-width="0" /><path d="M576 160L608 160L592.0 176.0Z" fill="#ff0000" stroke-width="0" /><path d="M576 192L576 160L592.0 176.0Z" fill="#ff0000" stroke-width="0" /><path d="M608 160L608 192L592.0 176.0Z" fill="#ff0000" stroke-width="0" /><path d="M608 192L576 192L592.0 176.0Z" fill="#ff0000" stroke-width="0" /><path d="M640 160L672 160L656.0 176.0Z" fill="#ff0000" stroke-width="0" /><path d="M640 192L640 160L656.0 176.0Z" fill="#ff0000" stroke-width="0" /><path d="M672 160L672 192L656.0 176.0Z" fill="#ff0000" stroke-width="0" /><path d="M672 192L640 192L656.0 176.0Z" fill="#ff0000" stroke-width="0" /><path d="M672 160L704 160L688.0 176.0Z" fill="#ff0000" stroke-width="0" /><path d="M672 192L672 160L688.0 176.0Z" fill="#ff0000" stroke-width="0" /><path d="M704 160L704 192L688.0 176.0Z" fill="#ff0000" stroke-width="0" /><path d="M704 192L672 192L688.0 176.0Z" fill="#ff0000" stroke-width="0" /><path d="M704 160L736 160L720.0 176.0Z" fill="#ff0000" stroke-width="0" /><path d="M704 192L704 160L720.0 176.0Z" fill="#ff0000" stroke-width="0" /><path d="M736 160L736 192L720.0 176.0Z" fill="#ff0000" stroke-width="0" /><path d="M736 192L704 192L720.0 176.0Z" fill="#ff0000" stroke-width="0" /><path d="M768 160L800 160L784.0 176.0Z" fill="#ff0000" stroke-width="0" /><path d="M768 192L768 160L784.0 176.0Z" fill="#ff0000" stroke-width="0" /><path d="M800 160L800 192L784.0 176.0Z" fill="#ff0000" stroke-width="0" /><path d="M800 192L768 192L784.0 176.0Z" fill="#ff0000" stroke-width="0" /><path d="M800 160L832 160L816.0 176.0Z" fill="#ff0000" stroke-width="0" /><path d="M800 192L800 160L816.0 176.0Z" fill="#ff0000" stroke-width="0" /><path d="M832 160L832 192L816.0 176.0Z" fill="#ff0000" stroke-width="0" /><path d="M832 192L800 192L816.0 176.0Z" fill="#ff0000" stroke-width="0" /><path d="M832 160L864 160L848.0 176.0Z" fill="#ff0000" stroke-width="0" /><path d="M832 192L832 160L848.0 176.0Z" fill="#ff0000" stroke-width="0" /><path d="M864 160L864 192L848.0 176.0Z" fill="#ff0000" stroke-width="0" /><path d="M864 192L832 192L848.0 176.0Z" fill="#ff0000" stroke-width="0" /><path d="M896 160L896 192L880.0 176.0Z" fill="#000000" stroke-width="0" /><path d="M896 160L928 160L912.0 176.0Z" fill="#000000" stroke-width="0" /><path d="M896 192L896 160L912.0 176.0Z" fill="#000000" stroke-width="0" /><path d="M928 192L896 192L912.0 176.0Z" fill="#000000" stroke-width="0" /><path d="M0 192L32 192L16.0 208.0Z" fill="#000000" stroke-width="0" /><path d="M32 192L32 224L16.0 208.0Z" fill="#000000" stroke-width="0" /><path d="M32 224L0 224L16.0 208.0Z" fill="#000000" stroke-width="0" /><path d="M32 224L32 192L48.0 208.0Z" fill="#000000" stroke-width="0" /><path d="M64 192L96 192L80.0 208.0Z" fill="#ff0000" stroke-width="0" /><path d="M64 224L64 192L80.0 208.0Z" fill="#ff0000" stroke-width="0" /><path d="M96 192L96 224L80.0 208.0Z" fill="#ff0000" stroke-width="0" /><path d="M96 224L64 224L80.0 208.0Z" fill="#ff0000" stroke-width="0" /><path d="M128 192L160 192L144.0 208.0Z" fill="#ff0000" stroke-width="0" /><path d="M128 224L128 192L144.0 208.0Z" fill="#ff0000" stroke-width="0" /><path d="M160 192L160 224L144.0 208.0Z" fill="#ff0000" stroke-width="0" /><path d="M160 224L128 224L144.0 208.0Z" fill="#ff0000" stroke-width="0" /><path d="M192 192L224 192L208.0 208.0Z" fill="#ff0000" stroke-width="0" /><path d="M192 224L192 192L208.0 208.0Z" fill="#ff0000" stroke-width="0" /><path d="M224 192L224 224L208.0 208.0Z" fill="#ff0000" stroke-width="0" /><path d="M224 224L192 224L208.0 208.0Z" fill="#ff0000" stroke-width="0" /><path d="M256 192L288 192L272.0 208.0Z" fill="#ff0000" stroke-width="0" /><path d="M256 224L256 192L272.0 208.0Z" fill="#ff0000" stroke-width="0" /><path d="M288 192L288 224L272.0 208.0Z" fill="#ff0000" stroke-width="0" /><path d="M288 224L256 224L272.0 208.0Z" fill="#ff0000" stroke-width="0" /><path d="M288 192L320 192L304.0 208.0Z" fill="#ff0000" stroke-width="0" /><path d="M288 224L288 192L304.0 208.0Z" fill="#ff0000" stroke-width="0" /><path d="M320 192L320 224L304.0 208.0Z" fill="#ff0000" stroke-width="0" /><path d="M320 224L288 224L304.0 208.0Z" fill="#ff0000" stroke-width="0" /><path d="M320 192L352 192L336.0 208.0Z" fill="#ff0000" stroke-width="0" /><path d="M320 224L320 192L336.0 208.0Z" fill="#ff0000" stroke-width="0" /><path d="M352 192L352 224L336.0 208.0Z" fill="#ff0000" stroke-width="0" /><path d="M352 224L320 224L336.0 208.0Z" fill="#ff0000" stroke-width="0" /><path d="M352 192L384 192L368.0 208.0Z" fill="#ff0000" stroke-width="0" /><path d="M352 224L352 192L368.0 208.0Z" fill="#ff0000" stroke-width="0" /><path d="M384 192L384 224L368.0 208.0Z" fill="#ff0000" stroke-width="0" /><path d="M384 224L352 224L368.0 208.0Z" fill="#ff0000" stroke-width="0" /><path d="M384 192L416 192L400.0 208.0Z" fill="#ff0000" stroke-width="0" /><path d="M384 224L384 192L400.0 208.0Z" fill="#ff0000" stroke-width="0" /><path d="M448 192L480 192L464.0 208.0Z" fill="#ff0000" stroke-width="0" /><path d="M448 224L448 192L464.0 208.0Z" fill="#ff0000" stroke-width="0" /><path d="M480 192L480 224L464.0 208.0Z" fill="#ff0000" stroke-width="0" /><path d="M480 224L448 224L464.0 208.0Z" fill="#ff0000" stroke-width="0" /><path d="M480 192L512 192L496.0 208.0Z" fill="#ff0000" stroke-width="0" /><path d="M480 224L480 192L496.0 208.0Z" fill="#ff0000" stroke-width="0" /><path d="M512 192L512 224L496.0 208.0Z" fill="#ff0000" stroke-width="0" /><path d="M512 224L480 224L496.0 208.0Z" fill="#ff0000" stroke-width="0" /><path d="M512 192L544 192L528.0 208.0Z" fill="#ff0000" stroke-width="0" /><path d="M512 224L512 192L528.0 208.0Z" fill="#ff0000" stroke-width="0" /><path d="M544 192L544 224L528.0 208.0Z" fill="#ff0000" stroke-width="0" /><path d="M544 224L512 224L528.0 208.0Z" fill="#ff0000" stroke-width="0" /><path d="M544 192L576 192L560.0 208.0Z" fill="#ff0000" stroke-width="0" /><path d="M544 224L544 192L560.0 208.0Z" fill="#ff0000" stroke-width="0" /><path d="M576 192L576 224L560.0 208.0Z" fill="#ff0000" stroke-width="0" /><path d="M576 224L544 224L560.0 208.0Z" fill="#ff0000" stroke-width="0" /><path d="M576 192L608 192L592.0 208.0Z" fill="#ff0000" stroke-width="0" /><path d="M576 224L576 192L592.0 208.0Z" fill="#ff0000" stroke-width="0" /><path d="M640 224L608 224L624.0 208.0Z" fill="#000000" stroke-width="0" /><path d="M672 192L704 192L688.0 208.0Z" fill="#ff0000" stroke-width="0" /><path d="M672 224L672 192L688.0 208.0Z" fill="#ff0000" stroke-width="0" /><path d="M704 192L704 224L688.0 208.0Z" fill="#ff0000" stroke-width="0" /><path d="M704 224L672 224L688.0 208.0Z" fill="#ff0000" stroke-width="0" /><path d="M768 192L800 192L784.0 208.0Z" fill="#ff0000" stroke-width="0" /><path d="M768 224L768 192L784.0 208.0Z" fill="#ff0000" stroke-width="0" /><path d="M800 192L800 224L784.0 208.0Z" fill="#ff0000" stroke-width="0" /><path d="M800 224L768 224L784.0 208.0Z" fill="#ff0000" stroke-width="0" /><path d="M800 192L832 192L816.0 208.0Z" fill="#ff0000" stroke-width="0" /><path d="M832 192L832 224L816.0 208.0Z" fill="#ff0000" stroke-width="0" /><path d="M832 192L864 192L848.0 208.0Z" fill="#ff0000" stroke-width="0" /><path d="M832 224L832 192L848.0 208.0Z" fill="#ff0000" stroke-width="0" /><path d="M864 192L864 224L848.0 208.0Z" fill="#ff0000" stroke-width="0" /><path d="M864 224L832 224L848.0 208.0Z" fill="#ff0000" stroke-width="0" /><path d="M896 192L896 224L880.0 208.0Z" fill="#000000" stroke-width="0" /><path d="M896 192L928 192L912.0 208.0Z" fill="#000000" stroke-width="0" /><path d="M896 224L896 192L912.0 208.0Z" fill="#000000" stroke-width="0" /><path d="M928 224L896 224L912.0 208.0Z" fill="#000000" stroke-width="0" /><path d="M0 224L32 224L16.0 240.0Z" fill="#000000" stroke-width="0" /><path d="M32 224L32 256L16.0 240.0Z" fill="#000000" stroke-width="0" /><path d="M32 256L32 224L48.0 240.0Z" fill="#000000" stroke-width="0" /><path d="M64 256L32 256L48.0 240.0Z" fill="#000000" stroke-width="0" /><path d="M96 256L64 256L80.0 240.0Z" fill="#000000" stroke-width="0" /><path d="M128 256L96 256L112.0 240.0Z" fill="#000000" stroke-width="0" /><path d="M160 256L128 256L144.0 240.0Z" fill="#000000" stroke-width="0" /><path d="M192 256L160 256L176.0 240.0Z" fill="#000000" stroke-width="0" /><path d="M224 256L192 256L208.0 240.0Z" fill="#000000" stroke-width="0" /><path d="M256 256L224 256L240.0 240.0Z" fill="#000000" stroke-width="0" /><path d="M288 256L256 256L272.0 240.0Z" fill="#000000" stroke-width="0" /><path d="M320 256L288 256L304.0 240.0Z" fill="#000000" stroke-width="0" /><path d="M352 256L320 256L336.0 240.0Z" fill="#000000" stroke-width="0" /><path d="M384 256L352 256L368.0 240.0Z" fill="#000000" stroke-width="0" /><path d="M416 224L416 256L400.0 240.0Z" fill="#000000" stroke-width="0" /><path d="M416 256L384 256L400.0 240.0Z" fill="#000000" stroke-width="0" /><path d="M416 256L416 224L432.0 240.0Z" fill="#000000" stroke-width="0" /><path d="M448 256L416 256L432.0 240.0Z" fill="#000000" stroke-width="0" /><path d="M480 256L448 256L464.0 240.0Z" fill="#000000" stroke-width="0" /><path d="M512 256L480 256L496.0 240.0Z" fill="#000000" stroke-width="0" /><path d="M544 256L512 256L528.0 240.0Z" fill="#000000" stroke-width="0" /><path d="M576 256L544 256L560.0 240.0Z" fill="#000000" stroke-width="0" /><path d="M608 224L608 256L592.0 240.0Z" fill="#000000" stroke-width="0" /><path d="M608 256L576 256L592.0 240.0Z" fill="#000000" stroke-width="0" /><path d="M608 224L640 224L624.0 240.0Z" fill="#000000" stroke-width="0" /><path d="M608 256L608 224L624.0 240.0Z" fill="#000000" stroke-width="0" /><path d="M640 224L640 256L624.0 240.0Z" fill="#000000" stroke-width="0" /><path d="M640 256L640 224L656.0 240.0Z" fill="#000000" stroke-width="0" /><path d="M672 256L640 256L656.0 240.0Z" fill="#000000" stroke-width="0" /><path d="M704 256L672 256L688.0 240.0Z" fill="#000000" stroke-width="0" /><path d="M736 224L736 256L720.0 240.0Z" fill="#000000" stroke-width="0" /><path d="M736 256L704 256L720.0 240.0Z" fill="#000000" stroke-width="0" /><path d="M736 256L736 224L752.0 240.0Z" fill="#000000" stroke-width="0" /><path d="M768 256L736 256L752.0 240.0Z" fill="#000000" stroke-width="0" /><path d="M800 256L768 256L784.0 240.0Z" fill="#000000" stroke-width="0" /><path d="M832 256L800 256L816.0 240.0Z" fill="#000000" stroke-width="0" /><path d="M864 256L832 256L848.0 240.0Z" fill="#000000" stroke-width="0" /><path d="M896 224L896 256L880.0 240.0Z" fill="#000000" stroke-width="0" /><path d="M896 256L864 256L880.0 240.0Z" fill="#000000" stroke-width="0" /><path d="M896 224L928 224L912.0 240.0Z" fill="#000000" stroke-width="0" /><path d="M896 256L896 224L912.0 240.0Z" fill="#000000" stroke-width="0" /><path d="M32 256L64 256L48.0 272.0Z" fill="#000000" stroke-width="0" /><path d="M64 256L64 288L48.0 272.0Z" fill="#000000" stroke-width="0" /><path d="M64 256L96 256L80.0 272.0Z" fill="#000000" stroke-width="0" /><path d="M64 288L64 256L80.0 272.0Z" fill="#000000" stroke-width="0" /><path d="M96 256L96 288L80.0 272.0Z" fill="#000000" stroke-width="0" /><path d="M96 256L128 256L112.0 272.0Z" fill="#000000" stroke-width="0" /><path d="M96 288L96 256L112.0 272.0Z" fill="#000000" stroke-width="0" /><path d="M128 256L128 288L112.0 272.0Z" fill="#000000" stroke-width="0" /><path d="M128 256L160 256L144.0 272.0Z" fill="#000000" stroke-width="0" /><path d="M128 288L128 256L144.0 272.0Z" fill="#000000" stroke-width="0" /><path d="M160 256L160 288L144.0 272.0Z" fill="#000000" stroke-width="0" /><path d="M160 256L192 256L176.0 272.0Z" fill="#000000" stroke-width="0" /><path d="M160 288L160 256L176.0 272.0Z" fill="#000000" stroke-width="0" /><path d="M192 256L192 288L176.0 272.0Z" fill="#000000" stroke-width="0" /><path d="M192 256L224 256L208.0 272.0Z" fill="#000000" stroke-width="0" /><path d="M192 288L192 256L208.0 272.0Z" fill="#000000" stroke-width="0" /><path d="M224 256L224 288L208.0 272.0Z" fill="#000000" stroke-width="0" /><path d="M224 256L256 256L240.0 272.0Z" fill="#000000" stroke-width="0" /><path d="M224 288L224 256L240.0 272.0Z" fill="#000000" stroke-width="0" /><path d="M256 256L256 288L240.0 272.0Z" fill="#000000" stroke-width="0" /><path d="M256 256L288 256L272.0 272.0Z" fill="#000000" stroke-width="0" /><path d="M256 288L256 256L272.0 272.0Z" fill="#000000" stroke-width="0" /><path d="M288 256L288 288L272.0 272.0Z" fill="#000000" stroke-width="0" /><path d="M288 256L320 256L304.0 272.0Z" fill="#000000" stroke-width="0" /><path d="M288 288L288 256L304.0 272.0Z" fill="#000000" stroke-width="0" /><path d="M320 256L320 288L304.0 272.0Z" fill="#000000" stroke-width="0" /><path d="M320 256L352 256L336.0 272.0Z" fill="#000000" stroke-width="0" /><path d="M320 288L320 256L336.0 272.0Z" fill="#000000" stroke-width="0" /><path d="M352 256L352 288L336.0 272.0Z" fill="#000000" stroke-width="0" /><path d="M352 256L384 256L368.0 272.0Z" fill="#000000" stroke-width="0" /><path d="M352 288L352 256L368.0 272.0Z" fill="#000000" stroke-width="0" /><path d="M384 256L384 288L368.0 272.0Z" fill="#000000" stroke-width="0" /><path d="M384 256L416 256L400.0 272.0Z" fill="#000000" stroke-width="0" /><path d="M384 288L384 256L400.0 272.0Z" fill="#000000" stroke-width="0" /><path d="M416 256L448 256L432.0 272.0Z" fill="#000000" stroke-width="0" /><path d="M448 256L448 288L432.0 272.0Z" fill="#000000" stroke-width="0" /><path d="M448 256L480 256L464.0 272.0Z" fill="#000000" stroke-width="0" /><path d="M448 288L448 256L464.0 272.0Z" fill="#000000" stroke-width="0" /><path d="M480 256L480 288L464.0 272.0Z" fill="#000000" stroke-width="0" /><path d="M480 256L512 256L496.0 272.0Z" fill="#000000" stroke-width="0" /><path d="M480 288L480 256L496.0 272.0Z" fill="#000000" stroke-width="0" /><path d="M512 256L512 288L496.0 272.0Z" fill="#000000" stroke-width="0" /><path d="M512 256L544 256L528.0 272.0Z" fill="#000000" stroke-width="0" /><path d="M512 288L512 256L528.0 272.0Z" fill="#000000" stroke-width="0" /><path d="M544 256L544 288L528.0 272.0Z" fill="#000000" stroke-width="0" /><path d="M544 256L576 256L560.0 272.0Z" fill="#000000" stroke-width="0" /><path d="M544 288L544 256L560.0 272.0Z" fill="#000000" stroke-width="0" /><path d="M576 256L576 288L560.0 272.0Z" fill="#000000" stroke-width="0" /><path d="M576 256L608 256L592.0 272.0Z" fill="#000000" stroke-width="0" /><path d="M576 288L576 256L592.0 272.0Z" fill="#000000" stroke-width="0" /><path d="M640 256L672 256L656.0 272.0Z" fill="#000000" stroke-width="0" /><path d="M672 256L672 288L656.0 272.0Z" fill="#000000" stroke-width="0" /><path d="M672 256L704 256L688.0 272.0Z" fill="#000000" stroke-width="0" /><path d="M672 288L672 256L688.0 272.0Z" fill="#000000" stroke-width="0" /><path d="M704 256L704 288L688.0 272.0Z" fill="#000000" stroke-width="0" /><path d="M704 256L736 256L720.0 272.0Z" fill="#000000" stroke-width="0" /><path d="M704 288L704 256L720.0 272.0Z" fill="#000000" stroke-width="0" /><path d="M736 256L768 256L752.0 272.0Z" fill="#000000" stroke-width="0" /><path d="M768 256L768 288L752.0 272.0Z" fill="#000000" stroke-width="0" /><path d="M768 256L800 256L784.0 272.0Z" fill="#000000" stroke-width="0" /><path d="M768 288L768 256L784.0 272.0Z" fill="#000000" stroke-width="0" /><path d="M800 256L800 288L784.0 272.0Z" fill="#000000" stroke-width="0" /><path d="M800 256L832 256L816.0 272.0Z" fill="#000000" stroke-width="0" /><path d="M800 288L800 256L816.0 272.0Z" fill="#000000" stroke-width="0" /><path d="M832 256L832 288L816.0 272.0Z" fill="#000000" stroke-width="0" /><path d="M832 256L864 256L848.0 272.0Z" fill="#000000" stroke-width="0" /><path d="M832 288L832 256L848.0 272.0Z" fill="#000000" stroke-width="0" /><path d="M864 256L864 288L848.0 272.0Z" fill="#000000" stroke-width="0" /><path d="M864 256L896 256L880.0 272.0Z" fill="#000000" stroke-width="0" /><path d="M864 288L864 256L880.0 272.0Z" fill="#000000" stroke-width="0" /></svg>